<svg width="37" height="32" viewBox="0 0 37 32" fill="none" xmlns="http://www.w3.org/2000/svg">
<path d="M19.7129 0H5.47579C2.45626 0 0 2.45645 0 5.4758V23.5242C0 26.5437 2.45626 29 5.47579 29H19.7129C22.7324 29 25.1887 26.5437 25.1887 23.5242V5.4758C25.1887 2.45645 22.7324 0 19.7129 0ZM22.9983 23.5242C22.9983 25.3359 21.5246 26.8097 19.7129 26.8097H5.47579C3.66407 26.8097 2.19031 25.3359 2.19031 23.5242V5.4758C2.19031 3.66426 3.66407 2.19032 5.47579 2.19032H19.7129C21.5246 2.19032 22.9983 3.66426 22.9983 5.4758V23.5242Z" fill="#2C8CF4"/>
<path d="M20.2209 12.3244V12.3244C20.0145 12.3244 19.8411 12.1713 19.803 11.9684C19.2716 9.13802 17.0573 6.92129 14.2273 6.38659C14.0248 6.34833 13.8721 6.17519 13.8721 5.96911V5.96911C13.8724 5.71849 13.7751 5.48285 13.5979 5.30549C13.4207 5.12813 13.1855 5.03045 12.9348 5.03027C12.9345 5.03027 12.9341 5.03027 12.9338 5.03027C12.6835 5.03027 12.4482 5.1276 12.271 5.3046C12.0935 5.48178 11.9958 5.71778 11.9965 5.94433V5.94433C11.9849 6.12036 11.8516 6.2633 11.6783 6.29625C8.80429 6.84256 6.56146 9.11202 6.04495 11.9858C6.00882 12.1868 5.83763 12.339 5.6334 12.339V12.339C5.63306 12.339 5.63269 12.339 5.63235 12.339C5.38209 12.339 5.14643 12.4365 4.96925 12.6133C4.79207 12.7905 4.6944 13.0262 4.6944 13.2764C4.69403 13.527 4.79136 13.7627 4.96854 13.94C5.14572 14.1174 5.38102 14.2151 5.63306 14.2153V14.2153C5.83959 14.2153 6.01314 14.3682 6.05171 14.5711C6.58886 17.3974 8.80521 19.6083 11.6323 20.139C11.8352 20.177 11.9883 20.3504 11.9883 20.5568V20.5568C11.9891 21.0737 12.4097 21.494 12.9259 21.494C12.9263 21.494 12.9266 21.494 12.927 21.494C13.4436 21.494 13.8642 21.0737 13.8649 20.5565V20.5565C13.8649 20.3502 14.0179 20.177 14.2206 20.139C17.0539 19.6073 19.2709 17.3904 19.803 14.5568C19.8411 14.3539 20.0145 14.2008 20.2209 14.2008V14.2008C20.7382 14.2003 21.1589 13.7789 21.1582 13.2618C21.1575 12.7452 20.7371 12.3247 20.2209 12.3244ZM17.0713 12.5903C16.8923 12.7648 16.7925 12.9983 16.7897 13.2461C16.7889 13.2819 16.7907 13.3178 16.795 13.36C16.8527 13.8498 17.2584 14.2067 17.7604 14.2008V14.2008C17.8829 14.2008 17.9756 14.3122 17.9477 14.4315C17.5038 16.3318 15.9989 17.8379 14.0985 18.2835C13.9815 18.311 13.8721 18.2201 13.8721 18.0998V18.0998C13.8817 17.6075 13.5206 17.1925 13.0261 17.1337C12.5131 17.0835 12.0539 17.4556 12.0008 17.9672C11.9972 18 11.9958 18.0332 11.9958 18.0667V18.0667C11.9958 18.2049 11.8703 18.3095 11.7358 18.2775C9.84398 17.8275 8.34695 16.3268 7.90265 14.4322C7.87459 14.3126 7.9675 14.2008 8.09039 14.2008V14.2008C8.56988 14.2038 8.99662 13.849 9.05542 13.3545C9.10784 12.842 8.73386 12.3821 8.22193 12.3294C8.18772 12.326 8.1517 12.3251 8.12249 12.3244V12.3244C7.98174 12.3244 7.87509 12.1967 7.90755 12.0598C8.35575 10.1689 9.85979 8.67726 11.7589 8.24807C11.874 8.22206 11.9823 8.30809 11.9883 8.42591V8.42591C11.9791 8.91806 12.3406 9.33266 12.8297 9.39042C13.338 9.44995 13.8065 9.08223 13.8664 8.56709C13.8706 8.52912 13.8728 8.49115 13.8721 8.45835V8.45835C13.8721 8.32108 13.997 8.21734 14.1305 8.2496C16.0063 8.70315 17.4921 10.1921 17.9415 12.0694C17.9731 12.2012 17.8706 12.3244 17.7351 12.3244V12.3244C17.4788 12.3203 17.2499 12.4158 17.0713 12.5903Z" fill="#2C8CF4"/>
<path d="M12.9705 11.4883C12.0789 11.4883 11.3534 12.2138 11.3534 13.1055C11.3534 13.9971 12.0789 14.7226 12.9705 14.7226C13.8621 14.7226 14.5875 13.9971 14.5875 13.1055C14.5875 12.2138 13.8621 11.4883 12.9705 11.4883Z" fill="#2C8CF4"/>
<path d="M15.5258 21.8921C14.7347 21.8921 14.0912 22.5359 14.0912 23.327C14.0912 24.1181 14.7347 24.7615 15.5258 24.7615C16.3169 24.7615 16.9603 24.1181 16.9603 23.327C16.9603 22.5359 16.3169 21.8921 15.5258 21.8921Z" fill="#2C8CF4"/>
<path d="M19.5414 21.8921C18.7504 21.8921 18.1069 22.5359 18.1069 23.327C18.1069 24.1181 18.7504 24.7615 19.5414 24.7615C20.3325 24.7615 20.976 24.1181 20.976 23.327C20.976 22.5359 20.3325 21.8921 19.5414 21.8921Z" fill="#2C8CF4"/>
<path d="M30.7129 3H16.4758C13.4563 3 11 5.45645 11 8.4758V26.5242C11 29.5437 13.4563 32 16.4758 32H30.7129C33.7324 32 36.1887 29.5437 36.1887 26.5242V8.4758C36.1887 5.45645 33.7324 3 30.7129 3Z" fill="#03A9F4" fill-opacity="0.1"/>
</svg>
