<svg width="36" height="32" viewBox="0 0 36 32" fill="none" xmlns="http://www.w3.org/2000/svg">
<path d="M35.8887 12.4335C35.8863 10.4319 34.2564 8.80041 32.2544 8.79643H31.9833V7.58277C31.9817 6.16954 30.8305 5.01073 29.4137 5H10.0546C8.39454 5 7.02385 6.35042 7 8.01687V29.4129C7 30.8368 8.15841 31.9968 9.58396 32H32.2584C34.2596 31.9952 35.8903 30.3646 35.895 28.3626L35.8887 12.4335Z" fill="#03A9F4" fill-opacity="0.1"/>
<path d="M28.8887 7.43346C28.8863 5.43188 27.2564 3.80041 25.2544 3.79643H24.9833V2.58277C24.9817 1.16954 23.8305 0.0107329 22.4137 0H3.05464H3.05384C1.39375 0 0.023852 1.35042 0 3.01687V24.4129C0 25.8368 1.15841 26.9968 2.58396 27H25.2584C27.2596 26.9952 28.8903 25.3646 28.895 23.3626L28.8887 7.43346ZM26.583 23.3475C26.5814 24.0742 25.9891 24.6673 25.264 24.6705H2.5768C2.42733 24.6705 2.30569 24.5488 2.30569 24.3993V6.02103C2.54898 6.08185 2.77637 6.11603 3.05146 6.11206H25.2528C25.9787 6.11524 26.5711 6.70836 26.5727 7.43386L26.583 23.3475ZM22.6848 3.80637L3.0769 3.80677C2.66824 3.78491 2.35419 3.43428 2.37565 3.02641C2.39712 2.64717 2.69845 2.34584 3.0769 2.32517L3.25579 2.31563H22.4137C22.5631 2.31563 22.6848 2.43687 22.6848 2.58635V3.80637Z" fill="#2C8CF4"/>
<path d="M22.6681 14.05H19.7868C18.7683 14.05 17.9391 14.8793 17.9391 15.8978C17.9391 16.9163 18.7683 17.7455 19.7868 17.7455H22.6681C23.6866 17.7455 24.5159 16.9163 24.5159 15.8978C24.5159 14.8793 23.6866 14.05 22.6681 14.05Z" fill="#2C8CF4"/>
</svg>
