<svg width="36" height="32" viewBox="0 0 36 32" fill="none" xmlns="http://www.w3.org/2000/svg">
<path d="M7.16718 13.4876L6.35251 13.97C5.5881 14.3947 4.62417 14.1192 4.19954 13.3548C3.77486 12.5904 4.05028 11.6265 4.81465 11.2018L17.5265 3.68759C18.9611 2.8906 20.7055 2.8906 22.1401 3.68759L34.852 11.2018C35.6163 11.6265 35.8918 12.5904 35.4671 13.3548C35.0424 14.1192 34.0785 14.3947 33.3141 13.97L32.5 13.4879V30.6399C32.5 31.1645 32.0747 31.5898 31.5501 31.5898H22.3669C21.8422 31.5898 21.4169 31.1645 21.4169 30.6399V25.5732C21.4169 25.3983 21.2751 25.2565 21.1002 25.2565H18.5669C18.3921 25.2565 18.2503 25.3983 18.2503 25.5732V30.6399C18.2503 31.1645 17.825 31.5898 17.3003 31.5898H8.11714C7.59249 31.5898 7.16718 31.1645 7.16718 30.6399V13.4876Z" fill="#03A9F4" fill-opacity="0.1"/>
<path d="M3.16718 10.4876L2.35251 10.97C1.5881 11.3947 0.624175 11.1192 0.199545 10.3548C-0.225135 9.59045 0.0502847 8.62655 0.814655 8.20185L13.5265 0.687586C14.9611 -0.109404 16.7055 -0.109404 18.1401 0.687586L30.852 8.20185C31.6163 8.62655 31.8918 9.59044 31.4671 10.3548C31.0424 11.1192 30.0785 11.3947 29.3141 10.97L28.5 10.4879V27.6399C28.5 28.1645 28.0747 28.5898 27.5501 28.5898H18.3669C17.8422 28.5898 17.4169 28.1645 17.4169 27.6399V22.5732C17.4169 22.3983 17.2751 22.2565 17.1002 22.2565H14.5669C14.3921 22.2565 14.2503 22.3983 14.2503 22.5732V27.6399C14.2503 28.1645 13.825 28.5898 13.3003 28.5898H4.11714C3.59249 28.5898 3.16718 28.1645 3.16718 27.6399V10.4876ZM12.6666 14.3398H18.9998C19.8743 14.3398 20.5831 15.0487 20.5831 15.9232C20.5831 16.7976 19.8743 17.5065 18.9998 17.5065H12.6666C11.7922 17.5065 11.0833 16.7976 11.0833 15.9232C11.0833 15.0487 11.7922 14.3398 12.6666 14.3398ZM6.3338 8.61245V25.1065C6.3338 25.2814 6.47557 25.4232 6.65044 25.4232H10.767C10.9419 25.4232 11.0837 25.2814 11.0837 25.1065V20.6732C11.0837 19.7987 11.7925 19.0898 12.667 19.0898H19.0002C19.8746 19.0898 20.5835 19.7987 20.5835 20.6732V25.1065C20.5835 25.2814 20.7253 25.4232 20.9002 25.4232H25.0168C25.1916 25.4232 25.3334 25.2814 25.3334 25.1065V8.61285L16.6022 3.44257C16.124 3.17691 15.5426 3.17691 15.0644 3.44257L6.3338 8.61245Z" fill="#2C8CF4"/>
</svg>
