<svg width="36" height="33" viewBox="0 0 36 33" fill="none" xmlns="http://www.w3.org/2000/svg">
<path d="M34.3291 17.7106H34.5817C35.1404 17.7409 35.6179 17.3126 35.6483 16.7539C35.6786 16.1952 35.2502 15.7177 34.6916 15.6874C34.655 15.6854 34.6183 15.6854 34.5817 15.6874H32.7655L32.5735 13.2054C32.5408 10.3186 30.1895 7.99659 27.3026 8H14.3532C11.4704 8.0031 9.12541 10.3228 9.09118 13.2054L8.88433 15.6874H7.06804C6.50934 15.6571 6.03184 16.0854 6.00152 16.6441C5.97119 17.2028 6.39954 17.6802 6.95819 17.7106C6.99475 17.7125 7.03142 17.7125 7.06804 17.7106H7.72629C6.71928 18.5263 6.06054 19.7556 6.05495 21.152V24.3879C6.06309 26.4184 7.43264 28.1089 9.29082 28.6453V31.0681C9.29082 31.6277 9.88012 32.0812 10.607 32.0812C11.334 32.0812 11.9233 31.6277 11.9233 31.0681V28.8394H29.7334V31.0681C29.7334 31.6277 30.3227 32.0812 31.0497 32.0812C31.7766 32.0812 32.3659 31.6277 32.3659 31.0681V28.7539C34.4286 28.3628 35.9913 26.5621 36 24.3879V21.152C35.9945 19.7561 35.3362 18.5265 34.3291 17.7106Z" fill="#03A9F4" fill-opacity="0.1"/>
<path d="M28.3291 9.71059H28.5817C29.1404 9.74091 29.6179 9.31257 29.6483 8.75392C29.6786 8.19521 29.2502 7.71772 28.6916 7.68739C28.655 7.68544 28.6183 7.68544 28.5817 7.68739H26.7655L26.5735 5.20542C26.5408 2.31864 24.1895 -0.0034137 21.3026 3.76737e-06H8.35318C5.47036 0.00309593 3.12541 2.32276 3.09118 5.20542L2.88433 7.68739H1.06804C0.509336 7.65707 0.0318401 8.08541 0.0015158 8.64406C-0.0288094 9.20277 0.399537 9.68021 0.958188 9.71059C0.994751 9.71254 1.03142 9.71254 1.06804 9.71059H1.72629C0.719277 10.5263 0.0605376 11.7556 0.0549505 13.152V16.3879C0.0630876 18.4184 1.43264 20.1089 3.29082 20.6453V23.0681C3.29082 23.6277 3.88012 24.0812 4.60705 24.0812C5.33398 24.0812 5.92328 23.6277 5.92328 23.0681V20.8394H23.7334V23.0681C23.7334 23.6277 24.3227 24.0812 25.0497 24.0812C25.7766 24.0812 26.3659 23.6277 26.3659 23.0681V20.7539C28.4286 20.3628 29.9913 18.5621 30 16.3879V13.152C29.9945 11.7561 29.3362 10.5265 28.3291 9.71059ZM5.51658 5.26498C5.51821 3.70073 6.78594 2.43305 8.35019 2.43137H21.3026C22.8663 2.43305 24.1332 3.70121 24.1332 5.26498L24.4072 8.70048H5.23752L5.51658 5.36333V5.26498ZM27.5746 16.3879C27.573 17.5045 26.6682 18.4094 25.5515 18.411H4.52437C3.40702 18.411 2.50123 17.5052 2.50123 16.3879V13.152C2.50123 12.0346 3.40702 11.1289 4.52437 11.1289H25.5515C26.6682 11.1305 27.573 12.0354 27.5746 13.152V16.3879Z" fill="#2C8CF4"/>
<path d="M19.3956 13.7568H10.2571C9.76347 13.7568 9.36328 14.157 9.36328 14.6507V15.2913C9.36328 15.785 9.76347 16.1852 10.2571 16.1852H19.3956C19.8893 16.1852 20.2895 15.785 20.2895 15.2913V14.6507C20.2895 14.157 19.8893 13.7568 19.3956 13.7568Z" fill="#2C8CF4"/>
<path d="M6.24363 13.7568H5.60301C5.10935 13.7568 4.70911 14.157 4.70911 14.6507V15.2913C4.70911 15.785 5.10935 16.1852 5.60301 16.1852H6.24363C6.73729 16.1852 7.13749 15.785 7.13749 15.2913V14.6507C7.13749 14.157 6.73729 13.7568 6.24363 13.7568Z" fill="#2C8CF4"/>
<path d="M24.0498 13.7568H23.4092C22.9155 13.7568 22.5153 14.157 22.5153 14.6507V15.2913C22.5153 15.785 22.9155 16.1852 23.4092 16.1852H24.0498C24.5434 16.1852 24.9436 15.785 24.9436 15.2913V14.6507C24.9436 14.157 24.5434 13.7568 24.0498 13.7568Z" fill="#2C8CF4"/>
</svg>
