<svg width="36" height="32" viewBox="0 0 36 32" fill="none" xmlns="http://www.w3.org/2000/svg">
<path d="M20.2857 3H31.7143C34.0812 3 36 4.94772 36 7.34999V27.65C36 30.0522 34.0812 32 31.7143 32H20.2857C17.9188 32 16 30.0522 16 27.65V7.34999C16 4.94772 17.9188 3 20.2857 3Z" fill="#03A9F4" fill-opacity="0.1"/>
<path d="M4.28571 0H15.7143C18.0812 0 20 1.8134 20 4.04999V22.95C20 25.1866 18.0812 27 15.7143 27H4.28571C1.91876 27 0 25.1866 0 22.95V4.04999C0 1.8134 1.91876 0 4.28571 0ZM5.00003 2.69999H4.28571C3.49675 2.69999 2.85717 3.30446 2.85717 4.04999V22.95C2.85717 23.6955 3.49675 24.3 4.28571 24.3H15.7143C16.5033 24.3 17.1428 23.6955 17.1428 22.95V4.04999C17.1428 3.30446 16.5033 2.69999 15.7143 2.69999H15L14.448 4.78629C14.3526 5.14689 14.0097 5.39998 13.6165 5.39998H6.38353C5.99018 5.39998 5.64732 5.14689 5.55195 4.78629L5.00003 2.69999Z" fill="#2C8CF4"/>
</svg>
