<svg width="37" height="33" viewBox="0 0 37 33" fill="none" xmlns="http://www.w3.org/2000/svg">
<path d="M9.70374 6.67334H31.8704C34.4938 6.67334 36.6204 8.79998 36.6204 11.4233V27.2566C36.6204 29.88 34.4938 32.0066 31.8704 32.0066H9.70374C7.08038 32.0066 4.95374 29.88 4.95374 27.2566V11.4233C4.95374 8.79998 7.08038 6.67334 9.70374 6.67334Z" fill="#03A9F4" fill-opacity="0.1"/>
<path d="M5.70374 0.67334H27.8704C30.4938 0.67334 32.6204 2.79998 32.6204 5.42333V21.2566C32.6204 23.88 30.4938 26.0066 27.8704 26.0066H5.70374C3.08038 26.0066 0.953735 23.88 0.953735 21.2566V5.42333C0.953735 2.79998 3.08038 0.67334 5.70374 0.67334ZM29.4537 7.00663V5.42333C29.4537 4.54893 28.7449 3.84001 27.8704 3.84001H5.70374C4.82925 3.84001 4.1204 4.54893 4.1204 5.42333V7.00663H29.4537ZM7.28706 18.09H8.87045C9.74484 18.09 10.4537 18.7989 10.4537 19.6733C10.4537 20.5477 9.74484 21.2566 8.87045 21.2566H7.28706C6.41257 21.2566 5.70374 20.5477 5.70374 19.6733C5.70374 18.7989 6.41258 18.09 7.28706 18.09ZM13.6204 18.09H18.3704C19.2448 18.09 19.9537 18.7989 19.9537 19.6733C19.9537 20.5477 19.2448 21.2566 18.3704 21.2566H13.6204C12.7459 21.2566 12.037 20.5477 12.037 19.6733C12.037 18.7989 12.7459 18.09 13.6204 18.09ZM29.4537 11.7566H4.1204V21.2566C4.1204 22.131 4.82925 22.84 5.70374 22.84H27.8704C28.7449 22.84 29.4537 22.131 29.4537 21.2566V11.7566Z" fill="#2C8CF4"/>
</svg>
