<svg width="183" height="20" viewBox="0 0 183 20" fill="none" xmlns="http://www.w3.org/2000/svg">
<g clip-path="url(#clip0)">
<path fill-rule="evenodd" clip-rule="evenodd" d="M113.385 9.02553H118.923C120.718 9.02553 122.256 7.53835 122.256 5.69219C122.256 3.89732 120.769 2.35886 118.923 2.35886H113.385V9.02553ZM122.308 9.64091C123.949 10.5127 125.026 12.2563 125.026 14.205C125.026 17.0768 122.667 19.3845 119.846 19.3845H111.487C111.487 13.0768 111.487 6.76912 111.487 0.461426H118.923C121.795 0.461426 124.103 2.8204 124.103 5.64091C124.154 7.23066 123.487 8.66655 122.308 9.64091ZM113.385 10.923V17.5383H119.846C121.641 17.5383 123.18 16.0512 123.18 14.205C123.18 12.4101 121.692 10.8717 119.846 10.8717H113.385V10.923Z" fill="#828282"/>
<path fill-rule="evenodd" clip-rule="evenodd" d="M148.103 0.512939H150L161.385 16.2052V0.512939H163.231V19.436H161.385L150 3.74371V19.436H148.103V0.512939Z" fill="#828282"/>
<path fill-rule="evenodd" clip-rule="evenodd" d="M135.897 3.07704L139.692 12.5642H132.103L135.897 3.07704ZM140.462 14.4104L142.462 19.3847H144.513L136.923 0.512939H134.872L127.333 19.436H129.385L131.385 14.4617H140.462V14.4104Z" fill="#828282"/>
<path fill-rule="evenodd" clip-rule="evenodd" d="M54.1538 4.10256C50.923 4.10256 48.3076 6.71795 48.3076 9.94872C48.3076 13.1795 50.923 15.7949 54.1538 15.7949C57.3846 15.7949 60 13.1795 60 9.94872C60 6.71795 57.3846 4.10256 54.1538 4.10256ZM54.1538 0C59.641 0 64.1025 4.46154 64.1025 9.94872C64.1025 15.4359 59.641 19.8974 54.1538 19.8974C48.6666 19.8974 44.2051 15.4359 44.2051 9.94872C44.2051 4.46154 48.6666 0 54.1538 0Z" fill="#828282"/>
<path fill-rule="evenodd" clip-rule="evenodd" d="M96.359 4.10262C93.1282 4.10262 90.5128 6.718 90.5128 9.94877C90.5128 13.1795 93.1282 15.7949 96.359 15.7949C99.5898 15.7949 102.205 13.1795 102.205 9.94877C102.205 6.718 99.5898 4.10262 96.359 4.10262ZM102.205 1.89749V0.512877H106.103V19.436H102.205V18.0513C100.513 19.2821 98.4615 19.9488 96.359 19.9488C90.8718 19.9488 86.4103 15.4872 86.4103 10.0001C86.4103 4.51288 90.8718 0.0513383 96.359 0.0513383C98.5128 5.6237e-05 100.513 0.666723 102.205 1.89749Z" fill="#828282"/>
<path fill-rule="evenodd" clip-rule="evenodd" d="M71.8975 9.94871C71.8975 13.1795 74.5129 15.7949 77.7436 15.7949C79.1795 15.7949 80.5128 15.282 81.5898 14.359L81.7436 14.2564L83.8462 17.8974C82.1026 19.2308 80 19.9487 77.7949 19.9487C72.3077 19.9487 67.8462 15.4872 67.8462 9.99999C67.8462 4.51281 72.3077 0.0512695 77.7949 0.0512695C80 0.0512695 82.1026 0.769218 83.8462 2.10255L81.7436 5.74358L81.5898 5.64101C80.5128 4.61537 79.1282 4.10255 77.7436 4.10255C74.5129 4.10255 71.8975 6.71794 71.8975 9.94871Z" fill="#828282"/>
<path fill-rule="evenodd" clip-rule="evenodd" d="M34.1539 0.512939L38.8206 8.6155L42.5129 2.20525C42.718 1.84627 42.718 1.43602 42.5129 1.07704C42.3077 0.718068 41.9488 0.512939 41.5385 0.512939H34.1539ZM21.436 2.20525C21.2308 1.84627 21.2308 1.43602 21.436 1.07704C21.6411 0.718068 22.0001 0.512939 22.4103 0.512939H27.6411L35.5385 14.2565C34.6667 15.7437 33.7949 17.2822 32.9231 18.7694C32.718 19.1283 32.359 19.3335 31.9488 19.3335C31.5385 19.3335 31.1795 19.1283 30.9744 18.7694C27.7949 13.2309 24.6154 7.74371 21.436 2.20525Z" fill="#6400DC"/>
<path fill-rule="evenodd" clip-rule="evenodd" d="M4.66667 7.48718H15.2308C14.3077 5.53846 12.2564 4.15385 9.94872 4.15385C7.64102 4.15385 5.64102 5.48718 4.66667 7.48718ZM18.9231 17.2821C16.9231 18.9744 14.2051 20 11.2308 20C5.58974 20 0 15.9487 0 10C0 4.46154 4.46154 0 9.94872 0C15.4359 0 19.8974 4.46154 19.8974 9.94872C19.8974 10.5128 19.8461 11.0256 19.7436 11.5385C14.6154 11.5385 9.53846 11.5385 4.41026 11.5385C5.23077 14 7.94872 15.7949 11.1795 15.7949C13.4359 15.7949 15.4359 14.9231 16.7179 13.5897L18.9231 17.2821Z" fill="#828282"/>
<path fill-rule="evenodd" clip-rule="evenodd" d="M168.051 0.512939H169.897V9.02576H172.41H173.744L179.897 0.512939H182.256L175.385 9.94884L182.256 19.436H179.897L173.744 10.9232H172.41H169.897V19.436H168.051V0.512939Z" fill="#828282"/>
</g>
<defs>
<clipPath id="clip0">
<rect width="182.256" height="20" fill="white"/>
</clipPath>
</defs>
</svg>
