<svg width="949" height="198" viewBox="0 0 949 198" fill="none" xmlns="http://www.w3.org/2000/svg">
<g style="mix-blend-mode:multiply" opacity="0.18">
<path d="M207.642 106.506C207.642 146.969 183.657 161.097 154.071 161.097C124.484 161.097 100.5 146.969 100.5 106.506C100.5 66.0439 154.071 14.5693 154.071 14.5693C154.071 14.5693 207.642 66.0439 207.642 106.506Z" fill="#D7DCE9"/>
<path d="M152.119 154.907L152.668 121.044L175.501 79.1498L152.754 115.731L153 100.505L168.737 70.1953L153.066 96.4757L153.509 69.0905L170.36 44.9602L153.579 64.7841L153.856 14.5693L152.114 81.0445L152.257 78.3024L135.125 52.0017L151.983 83.5666L150.386 114.151L150.339 113.339L130.588 85.6621L150.279 116.207L150.079 120.032L150.044 120.09L150.06 120.404L146.01 198H151.421L152.07 157.92L171.713 127.449L152.119 154.907Z" fill="#3F3D56"/>
<path d="M462.956 127.136C462.956 158.431 444.428 169.358 421.572 169.358C398.716 169.358 380.188 158.431 380.188 127.136C380.188 95.8407 421.572 56.0283 421.572 56.0283C421.572 56.0283 462.956 95.8407 462.956 127.136Z" fill="#D7DCE9"/>
<path d="M420.865 164.166L421.285 138.073L438.764 105.791L421.351 133.979L421.539 122.247L433.586 98.8913L421.59 119.142L421.929 98.04L434.829 79.4462L421.983 94.7217L422.195 56.0283L420.861 107.251L420.971 105.138L407.856 84.8722L420.761 109.195L419.539 132.762L419.502 132.136L404.383 110.809L419.456 134.346L419.304 137.294L419.276 137.338L419.289 137.58L416.188 197.372H420.331L420.828 166.488L435.864 143.009L420.865 164.166Z" fill="#3F3D56"/>
<path d="M27.4902 172.782C42.6725 172.782 54.9803 160.477 54.9803 145.298C54.9803 130.119 42.6725 117.813 27.4902 117.813C12.3078 117.813 0 130.119 0 145.298C0 160.477 12.3078 172.782 27.4902 172.782Z" fill="#D7DCE9"/>
<path d="M27.2402 195.001L27.4655 145.146" stroke="#3F3D56" stroke-width="2" stroke-miterlimit="10"/>
<path d="M27.4658 152.196C31.3604 152.196 34.5176 149.04 34.5176 145.146C34.5176 141.252 31.3604 138.096 27.4658 138.096C23.5712 138.096 20.4141 141.252 20.4141 145.146C20.4141 149.04 23.5712 152.196 27.4658 152.196Z" fill="#3F3D56"/>
<path d="M27.3282 175.873C27.3282 175.873 26.4187 154.206 5.75586 156.631L27.3282 175.873Z" fill="#3F3D56"/>
<path d="M256.139 117.602C271.321 117.602 283.629 105.297 283.629 90.1176C283.629 74.9384 271.321 62.6333 256.139 62.6333C240.956 62.6333 228.648 74.9384 228.648 90.1176C228.648 105.297 240.956 117.602 256.139 117.602Z" fill="#D7DCE9"/>
<path d="M254.582 191.582L256.164 90.0869" stroke="#3F3D56" stroke-width="2" stroke-miterlimit="10"/>
<path d="M256.165 97.1371C260.06 97.1371 263.217 93.9806 263.217 90.0869C263.217 86.1931 260.06 83.0366 256.165 83.0366C252.27 83.0366 249.113 86.1931 249.113 90.0869C249.113 93.9806 252.27 97.1371 256.165 97.1371Z" fill="#3F3D56"/>
<path d="M255.717 118.796C255.717 118.796 255.048 97.121 234.359 99.3169L255.717 118.796Z" fill="#3F3D56"/>
<path d="M254.614 189.644C254.614 189.644 259.796 148.063 233.639 145.641" stroke="#3F3D56" stroke-width="2" stroke-miterlimit="10"/>
<path d="M233.638 152.692C237.532 152.692 240.689 149.535 240.689 145.642C240.689 141.748 237.532 138.591 233.638 138.591C229.743 138.591 226.586 141.748 226.586 145.642C226.586 149.535 229.743 152.692 233.638 152.692Z" fill="#3F3D56"/>
<path d="M315.256 56.5852C330.438 56.5852 342.746 44.2801 342.746 29.101C342.746 13.9218 330.438 1.6167 315.256 1.6167C300.073 1.6167 287.766 13.9218 287.766 29.101C287.766 44.2801 300.073 56.5852 315.256 56.5852Z" fill="#D7DCE9"/>
<path d="M315.273 195.496V29.2021" stroke="#3F3D56" stroke-width="2" stroke-miterlimit="10"/>
<path d="M315.274 36.1733C319.169 36.1733 322.326 33.0168 322.326 29.123C322.326 25.2293 319.169 22.0728 315.274 22.0728C311.38 22.0728 308.223 25.2293 308.223 29.123C308.223 33.0168 311.38 36.1733 315.274 36.1733Z" fill="#3F3D56"/>
<path d="M293.614 156.488C297.509 156.488 300.666 153.332 300.666 149.438C300.666 145.544 297.509 142.388 293.614 142.388C289.72 142.388 286.562 145.544 286.562 149.438C286.562 153.332 289.72 156.488 293.614 156.488Z" fill="#3F3D56"/>
<path d="M315.274 65.1366C315.274 65.1366 314.267 43.4743 293.615 45.9922L315.274 65.1366Z" fill="#3F3D56"/>
<path d="M315.274 126.546C315.274 126.546 314.267 104.884 293.615 107.402L315.274 126.546Z" fill="#3F3D56"/>
<path d="M315.274 193.558C315.274 193.558 319.807 151.452 293.615 149.438" stroke="#3F3D56" stroke-width="2" stroke-miterlimit="10"/>
<path d="M337.364 90.3544C341.259 90.3544 344.416 87.1979 344.416 83.3042C344.416 79.4104 341.259 76.2539 337.364 76.2539C333.47 76.2539 330.312 79.4104 330.312 83.3042C330.312 87.1979 333.47 90.3544 337.364 90.3544Z" fill="#3F3D56"/>
<path d="M315.706 125.179C315.706 125.179 311.173 85.3186 337.365 83.3042" stroke="#3F3D56" stroke-width="2" stroke-miterlimit="10"/>
<path d="M30.2574 67.3793C28.3025 67.3793 26.3914 66.7997 24.766 65.7138C23.1405 64.6279 21.8736 63.0845 21.1254 61.2788C20.3773 59.4731 20.1816 57.4861 20.563 55.5691C20.9444 53.6521 21.8858 51.8913 23.2681 50.5092C24.6505 49.1271 26.4117 48.1859 28.3291 47.8046C30.2464 47.4233 32.2338 47.619 34.04 48.367C35.8461 49.115 37.3898 50.3816 38.4759 52.0067C39.562 53.6319 40.1418 55.5425 40.1418 57.497C40.1388 60.1171 39.0965 62.6289 37.2434 64.4816C35.3904 66.3342 32.878 67.3763 30.2574 67.3793ZM30.2574 48.5131C28.4802 48.5131 26.7429 49.04 25.2652 50.0272C23.7875 51.0144 22.6357 52.4174 21.9556 54.059C21.2755 55.7006 21.0976 57.507 21.4443 59.2497C21.791 60.9924 22.6468 62.5932 23.9035 63.8496C25.1602 65.106 26.7613 65.9616 28.5044 66.3083C30.2474 66.6549 32.0542 66.477 33.6961 65.797C35.3381 65.1171 36.7414 63.9656 37.7288 62.4882C38.7162 61.0108 39.2432 59.2739 39.2432 57.497C39.2405 55.1152 38.2929 52.8317 36.6083 51.1475C34.9237 49.4632 32.6398 48.5159 30.2574 48.5131Z" fill="#3F3D56"/>
<path d="M218.613 19.7645C216.658 19.7645 214.747 19.1849 213.121 18.0991C211.496 17.0132 210.229 15.4698 209.481 13.6641C208.733 11.8583 208.537 9.87131 208.918 7.95433C209.3 6.03736 210.241 4.27651 211.624 2.89445C213.006 1.51239 214.767 0.571198 216.685 0.189889C218.602 -0.19142 220.589 0.0042831 222.396 0.752248C224.202 1.50021 225.745 2.76685 226.831 4.39198C227.918 6.01711 228.497 7.92774 228.497 9.88227C228.494 12.5023 227.452 15.0142 225.599 16.8668C223.746 18.7195 221.234 19.7616 218.613 19.7645ZM218.613 0.898393C216.836 0.898393 215.098 1.42529 213.621 2.41245C212.143 3.39961 210.991 4.8027 210.311 6.44429C209.631 8.08588 209.453 9.89224 209.8 11.6349C210.146 13.3776 211.002 14.9784 212.259 16.2348C213.516 17.4912 215.117 18.3469 216.86 18.6935C218.603 19.0402 220.41 18.8623 222.052 18.1823C223.694 17.5023 225.097 16.3508 226.084 14.8734C227.072 13.3961 227.599 11.6591 227.599 9.88227C227.596 7.50043 226.648 5.21693 224.964 3.53272C223.279 1.8485 220.995 0.901116 218.613 0.898393Z" fill="#3F3D56"/>
<path d="M100.796 166.202C98.8415 166.202 96.9305 165.622 95.305 164.536C93.6796 163.45 92.4126 161.907 91.6645 160.101C90.9164 158.295 90.7207 156.308 91.102 154.391C91.4834 152.474 92.4248 150.714 93.8072 149.331C95.1895 147.949 96.9508 147.008 98.8681 146.627C100.786 146.246 102.773 146.441 104.579 147.189C106.385 147.937 107.929 149.204 109.015 150.829C110.101 152.454 110.681 154.365 110.681 156.319C110.678 158.939 109.636 161.451 107.783 163.304C105.929 165.156 103.417 166.199 100.796 166.202ZM100.796 147.335C99.0193 147.335 97.282 147.862 95.8043 148.849C94.3266 149.837 93.1748 151.24 92.4947 152.881C91.8146 154.523 91.6366 156.329 91.9833 158.072C92.3301 159.815 93.1859 161.415 94.4426 162.672C95.6993 163.928 97.3004 164.784 99.0435 165.131C100.787 165.477 102.593 165.299 104.235 164.619C105.877 163.939 107.281 162.788 108.268 161.31C109.255 159.833 109.782 158.096 109.782 156.319C109.78 153.937 108.832 151.654 107.147 149.97C105.463 148.286 103.179 147.338 100.796 147.335Z" fill="#3F3D56"/>
<path d="M59.0126 88.9403C62.2384 88.9403 64.8534 86.3258 64.8534 83.1008C64.8534 79.8757 62.2384 77.2612 59.0126 77.2612C55.7869 77.2612 53.1719 79.8757 53.1719 83.1008C53.1719 86.3258 55.7869 88.9403 59.0126 88.9403Z" fill="#3F3D56"/>
<path d="M693.52 106.506C693.52 146.969 669.536 161.097 639.95 161.097C610.363 161.097 586.379 146.969 586.379 106.506C586.379 66.0439 639.95 14.5693 639.95 14.5693C639.95 14.5693 693.52 66.0439 693.52 106.506Z" fill="#D7DCE9"/>
<path d="M637.998 154.907L638.547 121.044L661.379 79.1498L638.633 115.731L638.879 100.505L654.616 70.1953L638.944 96.4757L639.388 69.0905L656.239 44.9602L639.458 64.7841L639.735 14.5693L637.993 81.0445L638.136 78.3024L621.004 52.0017L637.861 83.5666L636.265 114.151L636.218 113.339L616.467 85.6621L636.158 116.207L635.958 120.032L635.922 120.09L635.939 120.404L631.889 198H637.3L637.949 157.92L657.592 127.449L637.998 154.907Z" fill="#3F3D56"/>
<path d="M948.835 127.136C948.835 158.431 930.307 169.358 907.451 169.358C884.595 169.358 866.066 158.431 866.066 127.136C866.066 95.8407 907.451 56.0283 907.451 56.0283C907.451 56.0283 948.835 95.8407 948.835 127.136Z" fill="#D7DCE9"/>
<path d="M906.742 164.166L907.162 138.073L924.641 105.791L907.228 133.979L907.416 122.247L919.463 98.8913L907.467 119.142L907.806 98.04L920.706 79.4462L907.859 94.7217L908.072 56.0283L906.738 107.251L906.848 105.138L893.733 84.8722L906.638 109.195L905.416 132.762L905.379 132.136L890.26 110.809L905.333 134.346L905.181 137.294L905.153 137.338L905.166 137.58L902.065 197.372H906.208L906.705 166.488L921.741 143.009L906.742 164.166Z" fill="#3F3D56"/>
<path d="M513.367 172.782C528.549 172.782 540.857 160.477 540.857 145.298C540.857 130.119 528.549 117.813 513.367 117.813C498.185 117.813 485.877 130.119 485.877 145.298C485.877 160.477 498.185 172.782 513.367 172.782Z" fill="#D7DCE9"/>
<path d="M513.119 195.001L513.344 145.146" stroke="#3F3D56" stroke-width="2" stroke-miterlimit="10"/>
<path d="M513.345 152.196C517.239 152.196 520.397 149.04 520.397 145.146C520.397 141.252 517.239 138.096 513.345 138.096C509.45 138.096 506.293 141.252 506.293 145.146C506.293 149.04 509.45 152.196 513.345 152.196Z" fill="#3F3D56"/>
<path d="M513.205 175.873C513.205 175.873 512.296 154.206 491.633 156.631L513.205 175.873Z" fill="#3F3D56"/>
<path d="M742.017 117.602C757.2 117.602 769.508 105.297 769.508 90.1176C769.508 74.9384 757.2 62.6333 742.017 62.6333C726.835 62.6333 714.527 74.9384 714.527 90.1176C714.527 105.297 726.835 117.602 742.017 117.602Z" fill="#EFF1F6"/>
<path d="M740.461 191.582L742.043 90.0869" stroke="#3F3D56" stroke-width="2" stroke-miterlimit="10"/>
<path d="M742.044 97.1371C745.939 97.1371 749.096 93.9806 749.096 90.0869C749.096 86.1931 745.939 83.0366 742.044 83.0366C738.149 83.0366 734.992 86.1931 734.992 90.0869C734.992 93.9806 738.149 97.1371 742.044 97.1371Z" fill="#3F3D56"/>
<path d="M741.594 118.796C741.594 118.796 740.925 97.121 720.236 99.3169L741.594 118.796Z" fill="#3F3D56"/>
<path d="M740.491 189.644C740.491 189.644 745.673 148.063 719.516 145.641" stroke="#3F3D56" stroke-width="2" stroke-miterlimit="10"/>
<path d="M719.515 152.692C723.409 152.692 726.566 149.535 726.566 145.642C726.566 141.748 723.409 138.591 719.515 138.591C715.62 138.591 712.463 141.748 712.463 145.642C712.463 149.535 715.62 152.692 719.515 152.692Z" fill="#3F3D56"/>
<path d="M801.135 56.5852C816.317 56.5852 828.625 44.2801 828.625 29.101C828.625 13.9218 816.317 1.6167 801.135 1.6167C785.952 1.6167 773.645 13.9218 773.645 29.101C773.645 44.2801 785.952 56.5852 801.135 56.5852Z" fill="#D7DCE9"/>
<path d="M801.152 195.496V29.2021" stroke="#3F3D56" stroke-width="2" stroke-miterlimit="10"/>
<path d="M801.151 36.1733C805.046 36.1733 808.203 33.0168 808.203 29.123C808.203 25.2293 805.046 22.0728 801.151 22.0728C797.257 22.0728 794.1 25.2293 794.1 29.123C794.1 33.0168 797.257 36.1733 801.151 36.1733Z" fill="#3F3D56"/>
<path d="M779.491 156.488C783.386 156.488 786.543 153.332 786.543 149.438C786.543 145.544 783.386 142.388 779.491 142.388C775.597 142.388 772.439 145.544 772.439 149.438C772.439 153.332 775.597 156.488 779.491 156.488Z" fill="#3F3D56"/>
<path d="M801.151 65.1366C801.151 65.1366 800.144 43.4743 779.492 45.9922L801.151 65.1366Z" fill="#3F3D56"/>
<path d="M801.151 126.546C801.151 126.546 800.144 104.884 779.492 107.402L801.151 126.546Z" fill="#3F3D56"/>
<path d="M801.151 193.558C801.151 193.558 805.684 151.452 779.492 149.438" stroke="#3F3D56" stroke-width="2" stroke-miterlimit="10"/>
<path d="M823.243 90.3544C827.138 90.3544 830.295 87.1979 830.295 83.3042C830.295 79.4104 827.138 76.2539 823.243 76.2539C819.349 76.2539 816.191 79.4104 816.191 83.3042C816.191 87.1979 819.349 90.3544 823.243 90.3544Z" fill="#3F3D56"/>
<path d="M801.583 125.179C801.583 125.179 797.05 85.3186 823.242 83.3042" stroke="#3F3D56" stroke-width="2" stroke-miterlimit="10"/>
<path d="M516.136 67.3793C514.181 67.3793 512.27 66.7997 510.645 65.7138C509.019 64.6279 507.752 63.0845 507.004 61.2788C506.256 59.4731 506.06 57.4861 506.442 55.5691C506.823 53.6521 507.765 51.8913 509.147 50.5092C510.529 49.1271 512.291 48.1859 514.208 47.8046C516.125 47.4233 518.113 47.619 519.919 48.367C521.725 49.115 523.269 50.3816 524.355 52.0067C525.441 53.6319 526.021 55.5425 526.021 57.497C526.018 60.1171 524.975 62.6289 523.122 64.4816C521.269 66.3342 518.757 67.3763 516.136 67.3793ZM516.136 48.5131C514.359 48.5131 512.622 49.04 511.144 50.0272C509.666 51.0144 508.515 52.4174 507.835 54.059C507.154 55.7006 506.976 57.507 507.323 59.2497C507.67 60.9924 508.526 62.5932 509.782 63.8496C511.039 65.106 512.64 65.9616 514.383 66.3083C516.126 66.6549 517.933 66.477 519.575 65.797C521.217 65.1171 522.62 63.9656 523.608 62.4882C524.595 61.0108 525.122 59.2739 525.122 57.497C525.119 55.1152 524.172 52.8317 522.487 51.1475C520.803 49.4632 518.519 48.5159 516.136 48.5131Z" fill="#3F3D56"/>
<path d="M704.492 19.7645C702.537 19.7645 700.626 19.1849 699 18.0991C697.375 17.0132 696.108 15.4698 695.36 13.6641C694.612 11.8583 694.416 9.87131 694.797 7.95433C695.179 6.03736 696.12 4.27651 697.503 2.89445C698.885 1.51239 700.646 0.571198 702.563 0.189889C704.481 -0.19142 706.468 0.0042831 708.274 0.752248C710.081 1.50021 711.624 2.76685 712.71 4.39198C713.796 6.01711 714.376 7.92774 714.376 9.88227C714.373 12.5023 713.331 15.0142 711.478 16.8668C709.625 18.7195 707.112 19.7616 704.492 19.7645ZM704.492 0.898393C702.715 0.898393 700.977 1.42529 699.5 2.41245C698.022 3.39961 696.87 4.8027 696.19 6.44429C695.51 8.08588 695.332 9.89224 695.679 11.6349C696.025 13.3776 696.881 14.9784 698.138 16.2348C699.395 17.4912 700.996 18.3469 702.739 18.6935C704.482 19.0402 706.289 18.8623 707.931 18.1823C709.572 17.5023 710.976 16.3508 711.963 14.8734C712.951 13.3961 713.478 11.6591 713.478 9.88227C713.475 7.50043 712.527 5.21693 710.843 3.53272C709.158 1.8485 706.874 0.901116 704.492 0.898393Z" fill="#3F3D56"/>
<path d="M586.675 166.202C584.72 166.202 582.809 165.622 581.184 164.536C579.558 163.45 578.292 161.907 577.543 160.101C576.795 158.295 576.6 156.308 576.981 154.391C577.362 152.474 578.304 150.714 579.686 149.331C581.068 147.949 582.83 147.008 584.747 146.627C586.664 146.246 588.652 146.441 590.458 147.189C592.264 147.937 593.808 149.204 594.894 150.829C595.98 152.454 596.56 154.365 596.56 156.319C596.557 158.939 595.514 161.451 593.661 163.304C591.808 165.156 589.296 166.199 586.675 166.202ZM586.675 147.335C584.898 147.335 583.161 147.862 581.683 148.849C580.205 149.837 579.054 151.24 578.374 152.881C577.693 154.523 577.516 156.329 577.862 158.072C578.209 159.815 579.065 161.415 580.321 162.672C581.578 163.928 583.179 164.784 584.922 165.131C586.665 165.477 588.472 165.299 590.114 164.619C591.756 163.939 593.159 162.788 594.147 161.31C595.134 159.833 595.661 158.096 595.661 156.319C595.658 153.937 594.711 151.654 593.026 149.97C591.342 148.286 589.058 147.338 586.675 147.335Z" fill="#3F3D56"/>
<path d="M544.89 88.9403C548.115 88.9403 550.73 86.3258 550.73 83.1008C550.73 79.8757 548.115 77.2612 544.89 77.2612C541.664 77.2612 539.049 79.8757 539.049 83.1008C539.049 86.3258 541.664 88.9403 544.89 88.9403Z" fill="#3F3D56"/>
</g>
</svg>
