<svg width="169" height="38" viewBox="0 0 169 38" fill="none" xmlns="http://www.w3.org/2000/svg">
<mask id="mask0" mask-type="alpha" maskUnits="userSpaceOnUse" x="2" y="1" width="34" height="36">
<path d="M15 2.3094C17.4752 0.880339 20.5248 0.880339 23 2.3094L31.4545 7.1906C33.9297 8.61966 35.4545 11.2607 35.4545 14.1188V23.8812C35.4545 26.7393 33.9297 29.3803 31.4545 30.8094L23 35.6906C20.5248 37.1197 17.4752 37.1197 15 35.6906L6.54552 30.8094C4.07031 29.3803 2.54552 26.7393 2.54552 23.8812V14.1188C2.54552 11.2607 4.07031 8.61966 6.54552 7.1906L15 2.3094Z" fill="#3075F3"/>
</mask>
<g mask="url(#mask0)">
<path d="M15 2.3094C17.4752 0.880339 20.5248 0.880339 23 2.3094L31.4545 7.1906C33.9297 8.61966 35.4545 11.2607 35.4545 14.1188V23.8812C35.4545 26.7393 33.9297 29.3803 31.4545 30.8094L23 35.6906C20.5248 37.1197 17.4752 37.1197 15 35.6906L6.54552 30.8094C4.07031 29.3803 2.54552 26.7393 2.54552 23.8812V14.1188C2.54552 11.2607 4.07031 8.61966 6.54552 7.1906L15 2.3094Z" fill="#3075F3"/>
<path d="M8.01344 -22.9103C10.4887 -24.3394 13.5382 -24.3394 16.0134 -22.9103L33.6175 -12.7466C36.0927 -11.3176 37.6175 -8.67654 37.6175 -5.81841V14.509C37.6175 17.3671 36.0927 20.0081 33.6175 21.4372L16.0134 31.6009C13.5382 33.03 10.4887 33.03 8.01345 31.6009L-9.59061 21.4372C-12.0658 20.0081 -13.5906 17.3671 -13.5906 14.509V-5.81841C-13.5906 -8.67653 -12.0658 -11.3176 -9.59061 -12.7466L8.01344 -22.9103Z" fill="#548EF6"/>
<path d="M8.01344 -28.704C10.4887 -30.1331 13.5382 -30.1331 16.0134 -28.704L33.6175 -18.5403C36.0927 -17.1113 37.6175 -14.4702 37.6175 -11.6121V8.7153C37.6175 11.5734 36.0927 14.2144 33.6175 15.6435L16.0134 25.8072C13.5382 27.2363 10.4887 27.2363 8.01345 25.8072L-9.59061 15.6435C-12.0658 14.2144 -13.5906 11.5734 -13.5906 8.71531V-11.6121C-13.5906 -14.4702 -12.0658 -17.1113 -9.59061 -18.5403L8.01344 -28.704Z" fill="#7EAAF8"/>
<path d="M8.01344 -34.4977C10.4887 -35.9268 13.5382 -35.9268 16.0134 -34.4977L33.6175 -24.334C36.0927 -22.905 37.6175 -20.2639 37.6175 -17.4058V2.9216C37.6175 5.77972 36.0927 8.42074 33.6175 9.84981L16.0134 20.0135C13.5382 21.4426 10.4887 21.4426 8.01345 20.0135L-9.59061 9.84981C-12.0658 8.42075 -13.5906 5.77973 -13.5906 2.9216V-17.4058C-13.5906 -20.2639 -12.0658 -22.905 -9.59061 -24.334L8.01344 -34.4977Z" fill="#A7C6F8"/>
<path d="M8.01344 -40.2915C10.4887 -41.7206 13.5382 -41.7206 16.0134 -40.2916L33.6175 -30.1278C36.0927 -28.6988 37.6175 -26.0578 37.6175 -23.1996V-2.87223C37.6175 -0.0140991 36.0927 2.62692 33.6175 4.05598L16.0134 14.2197C13.5382 15.6488 10.4887 15.6488 8.01345 14.2197L-9.59061 4.05598C-12.0658 2.62692 -13.5906 -0.0140953 -13.5906 -2.87222V-23.1996C-13.5906 -26.0578 -12.0658 -28.6988 -9.59061 -30.1278L8.01344 -40.2915Z" fill="#D1E0FA"/>
</g>
<path d="M54.272 24.52C54.048 24.712 53.696 24.88 53.216 25.024C52.752 25.168 52.24 25.24 51.68 25.24C51.008 25.24 50.432 25.144 49.952 24.952C49.472 24.744 49.144 24.464 48.968 24.112C48.792 23.744 48.576 23.272 48.32 22.696C48.064 22.104 47.792 21.448 47.504 20.728C47.232 20.008 46.944 19.248 46.64 18.448C46.352 17.632 46.072 16.808 45.8 15.976C45.528 15.144 45.272 14.328 45.032 13.528C44.792 12.728 44.584 11.976 44.408 11.272C44.632 11.048 44.952 10.848 45.368 10.672C45.8 10.48 46.256 10.384 46.736 10.384C47.328 10.384 47.808 10.512 48.176 10.768C48.56 11.008 48.84 11.464 49.016 12.136C49.448 13.704 49.88 15.208 50.312 16.648C50.76 18.072 51.224 19.56 51.704 21.112H51.848C52.28 19.608 52.72 17.968 53.168 16.192C53.632 14.416 54.072 12.648 54.488 10.888C54.776 10.744 55.08 10.624 55.4 10.528C55.736 10.432 56.112 10.384 56.528 10.384C57.12 10.384 57.624 10.52 58.04 10.792C58.456 11.048 58.664 11.48 58.664 12.088C58.664 12.44 58.576 12.952 58.4 13.624C58.24 14.296 58.024 15.056 57.752 15.904C57.496 16.736 57.2 17.608 56.864 18.52C56.544 19.432 56.216 20.296 55.88 21.112C55.56 21.912 55.256 22.624 54.968 23.248C54.68 23.856 54.448 24.28 54.272 24.52ZM65.4509 22.408C65.7229 22.408 66.0189 22.384 66.3389 22.336C66.6749 22.272 66.9229 22.192 67.0829 22.096V20.176L65.3549 20.32C64.9069 20.352 64.5389 20.448 64.2509 20.608C63.9629 20.768 63.8189 21.008 63.8189 21.328C63.8189 21.648 63.9389 21.912 64.1789 22.12C64.4349 22.312 64.8589 22.408 65.4509 22.408ZM65.2589 12.976C66.1229 12.976 66.9069 13.064 67.6109 13.24C68.3309 13.416 68.9389 13.688 69.4349 14.056C69.9469 14.408 70.3389 14.864 70.6109 15.424C70.8829 15.968 71.0189 16.616 71.0189 17.368V22.744C71.0189 23.16 70.8989 23.504 70.6589 23.776C70.4349 24.032 70.1629 24.256 69.8429 24.448C68.8029 25.072 67.3389 25.384 65.4509 25.384C64.6029 25.384 63.8349 25.304 63.1469 25.144C62.4749 24.984 61.8909 24.744 61.3949 24.424C60.9149 24.104 60.5389 23.696 60.2669 23.2C60.0109 22.704 59.8829 22.128 59.8829 21.472C59.8829 20.368 60.2109 19.52 60.8669 18.928C61.5229 18.336 62.5389 17.968 63.9149 17.824L67.0589 17.488V17.32C67.0589 16.856 66.8509 16.528 66.4349 16.336C66.0349 16.128 65.4509 16.024 64.6829 16.024C64.0749 16.024 63.4829 16.088 62.9069 16.216C62.3309 16.344 61.8109 16.504 61.3469 16.696C61.1389 16.552 60.9629 16.336 60.8189 16.048C60.6749 15.744 60.6029 15.432 60.6029 15.112C60.6029 14.696 60.6989 14.368 60.8909 14.128C61.0989 13.872 61.4109 13.656 61.8269 13.48C62.2909 13.304 62.8349 13.176 63.4589 13.096C64.0989 13.016 64.6989 12.976 65.2589 12.976ZM77.5936 24.976C77.4336 25.024 77.1776 25.072 76.8256 25.12C76.4896 25.168 76.1376 25.192 75.7696 25.192C75.4176 25.192 75.0976 25.168 74.8096 25.12C74.5376 25.072 74.3056 24.976 74.1136 24.832C73.9216 24.688 73.7696 24.496 73.6576 24.256C73.5616 24 73.5136 23.672 73.5136 23.272V16.072C73.5136 15.704 73.5776 15.392 73.7056 15.136C73.8496 14.864 74.0496 14.624 74.3056 14.416C74.5616 14.208 74.8736 14.024 75.2416 13.864C75.6256 13.688 76.0336 13.536 76.4656 13.408C76.8976 13.28 77.3456 13.184 77.8096 13.12C78.2736 13.04 78.7376 13 79.2016 13C79.9696 13 80.5776 13.152 81.0256 13.456C81.4736 13.744 81.6976 14.224 81.6976 14.896C81.6976 15.12 81.6656 15.344 81.6016 15.568C81.5376 15.776 81.4576 15.968 81.3616 16.144C81.0256 16.144 80.6816 16.16 80.3296 16.192C79.9776 16.224 79.6336 16.272 79.2976 16.336C78.9616 16.4 78.6416 16.472 78.3376 16.552C78.0496 16.616 77.8016 16.696 77.5936 16.792V24.976ZM94.7808 22.888C94.7008 23.64 94.4768 24.216 94.1088 24.616C93.7568 25.016 93.2368 25.216 92.5488 25.216C92.0368 25.216 91.5808 25.096 91.1808 24.856C90.7808 24.6 90.3488 24.176 89.8848 23.584L87.5088 20.608V24.976C87.3328 25.008 87.0688 25.048 86.7168 25.096C86.3808 25.16 86.0368 25.192 85.6848 25.192C85.3328 25.192 85.0128 25.168 84.7248 25.12C84.4528 25.072 84.2208 24.976 84.0288 24.832C83.8368 24.688 83.6848 24.496 83.5728 24.256C83.4768 24 83.4288 23.672 83.4288 23.272V9.376C83.6048 9.328 83.8608 9.28 84.1968 9.232C84.5488 9.168 84.9008 9.136 85.2528 9.136C85.6048 9.136 85.9168 9.16 86.1888 9.208C86.4768 9.256 86.7168 9.352 86.9088 9.496C87.1008 9.64 87.2448 9.84 87.3408 10.096C87.4528 10.336 87.5088 10.656 87.5088 11.056V17.392L91.6368 13.168C92.4688 13.168 93.1328 13.352 93.6288 13.72C94.1408 14.088 94.3968 14.552 94.3968 15.112C94.3968 15.352 94.3568 15.576 94.2768 15.784C94.1968 15.976 94.0688 16.176 93.8928 16.384C93.7328 16.592 93.5168 16.816 93.2448 17.056C92.9888 17.28 92.6848 17.544 92.3328 17.848L90.9408 19.048L94.7808 22.888ZM96.5973 10.096C96.5973 9.488 96.7973 8.976 97.1973 8.56C97.6133 8.144 98.1573 7.936 98.8293 7.936C99.5013 7.936 100.037 8.144 100.437 8.56C100.853 8.976 101.061 9.488 101.061 10.096C101.061 10.704 100.853 11.216 100.437 11.632C100.037 12.048 99.5013 12.256 98.8293 12.256C98.1573 12.256 97.6133 12.048 97.1973 11.632C96.7973 11.216 96.5973 10.704 96.5973 10.096ZM100.869 24.976C100.693 25.008 100.429 25.048 100.077 25.096C99.7413 25.16 99.3973 25.192 99.0453 25.192C98.6933 25.192 98.3733 25.168 98.0853 25.12C97.8133 25.072 97.5813 24.976 97.3893 24.832C97.1973 24.688 97.0453 24.496 96.9333 24.256C96.8373 24 96.7893 23.672 96.7893 23.272V13.504C96.9653 13.472 97.2213 13.432 97.5573 13.384C97.9093 13.32 98.2613 13.288 98.6133 13.288C98.9653 13.288 99.2773 13.312 99.5493 13.36C99.8373 13.408 100.077 13.504 100.269 13.648C100.461 13.792 100.605 13.992 100.701 14.248C100.813 14.488 100.869 14.808 100.869 15.208V24.976ZM110.859 17.608C110.859 17.112 110.715 16.752 110.427 16.528C110.155 16.288 109.779 16.168 109.299 16.168C108.979 16.168 108.659 16.208 108.339 16.288C108.035 16.368 107.771 16.488 107.547 16.648V24.976C107.387 25.024 107.131 25.072 106.779 25.12C106.443 25.168 106.091 25.192 105.723 25.192C105.371 25.192 105.051 25.168 104.763 25.12C104.491 25.072 104.259 24.976 104.067 24.832C103.875 24.688 103.723 24.496 103.611 24.256C103.515 24 103.467 23.672 103.467 23.272V16.072C103.467 15.64 103.555 15.288 103.731 15.016C103.923 14.744 104.179 14.496 104.499 14.272C105.043 13.888 105.723 13.576 106.539 13.336C107.371 13.096 108.291 12.976 109.299 12.976C111.107 12.976 112.499 13.376 113.475 14.176C114.451 14.96 114.939 16.056 114.939 17.464V24.976C114.779 25.024 114.523 25.072 114.171 25.12C113.835 25.168 113.483 25.192 113.115 25.192C112.763 25.192 112.443 25.168 112.155 25.12C111.883 25.072 111.651 24.976 111.459 24.832C111.267 24.688 111.115 24.496 111.003 24.256C110.907 24 110.859 23.672 110.859 23.272V17.608ZM123.147 12.976C124.059 12.976 124.883 13.096 125.619 13.336C126.371 13.56 127.003 13.856 127.515 14.224C127.835 14.448 128.083 14.696 128.259 14.968C128.451 15.24 128.547 15.592 128.547 16.024V24.424C128.547 25.272 128.387 26 128.067 26.608C127.747 27.232 127.307 27.744 126.747 28.144C126.203 28.56 125.555 28.864 124.803 29.056C124.067 29.248 123.275 29.344 122.427 29.344C120.971 29.344 119.827 29.144 118.995 28.744C118.163 28.36 117.747 27.728 117.747 26.848C117.747 26.48 117.819 26.152 117.963 25.864C118.123 25.592 118.299 25.384 118.491 25.24C118.955 25.496 119.475 25.712 120.051 25.888C120.643 26.064 121.251 26.152 121.875 26.152C122.739 26.152 123.427 26.008 123.939 25.72C124.451 25.432 124.707 24.968 124.707 24.328V23.944C124.051 24.232 123.251 24.376 122.307 24.376C121.587 24.376 120.899 24.272 120.243 24.064C119.603 23.84 119.035 23.504 118.539 23.056C118.059 22.592 117.667 22 117.363 21.28C117.075 20.56 116.931 19.704 116.931 18.712C116.931 17.736 117.083 16.888 117.387 16.168C117.707 15.448 118.139 14.856 118.683 14.392C119.243 13.912 119.899 13.56 120.651 13.336C121.419 13.096 122.251 12.976 123.147 12.976ZM124.635 16.456C124.523 16.392 124.355 16.328 124.131 16.264C123.923 16.2 123.659 16.168 123.339 16.168C122.555 16.168 121.963 16.392 121.563 16.84C121.179 17.272 120.987 17.896 120.987 18.712C120.987 19.64 121.179 20.312 121.563 20.728C121.963 21.128 122.467 21.328 123.075 21.328C123.731 21.328 124.251 21.176 124.635 20.872V16.456ZM130.356 23.056C130.356 22.384 130.564 21.824 130.98 21.376C131.396 20.928 131.964 20.704 132.684 20.704C133.404 20.704 133.972 20.928 134.388 21.376C134.804 21.824 135.012 22.384 135.012 23.056C135.012 23.728 134.804 24.288 134.388 24.736C133.972 25.184 133.404 25.408 132.684 25.408C131.964 25.408 131.396 25.184 130.98 24.736C130.564 24.288 130.356 23.728 130.356 23.056Z" fill="#3075F3"/>
<path d="M141.787 22.408C142.059 22.408 142.355 22.384 142.675 22.336C143.011 22.272 143.259 22.192 143.419 22.096V20.176L141.691 20.32C141.243 20.352 140.875 20.448 140.587 20.608C140.299 20.768 140.155 21.008 140.155 21.328C140.155 21.648 140.275 21.912 140.515 22.12C140.771 22.312 141.195 22.408 141.787 22.408ZM141.595 12.976C142.459 12.976 143.243 13.064 143.947 13.24C144.667 13.416 145.275 13.688 145.771 14.056C146.283 14.408 146.675 14.864 146.947 15.424C147.219 15.968 147.355 16.616 147.355 17.368V22.744C147.355 23.16 147.235 23.504 146.995 23.776C146.771 24.032 146.499 24.256 146.179 24.448C145.139 25.072 143.675 25.384 141.787 25.384C140.939 25.384 140.171 25.304 139.483 25.144C138.811 24.984 138.227 24.744 137.731 24.424C137.251 24.104 136.875 23.696 136.603 23.2C136.347 22.704 136.219 22.128 136.219 21.472C136.219 20.368 136.547 19.52 137.203 18.928C137.859 18.336 138.875 17.968 140.251 17.824L143.395 17.488V17.32C143.395 16.856 143.187 16.528 142.771 16.336C142.371 16.128 141.787 16.024 141.019 16.024C140.411 16.024 139.819 16.088 139.243 16.216C138.667 16.344 138.147 16.504 137.683 16.696C137.475 16.552 137.299 16.336 137.155 16.048C137.011 15.744 136.939 15.432 136.939 15.112C136.939 14.696 137.035 14.368 137.227 14.128C137.435 13.872 137.747 13.656 138.163 13.48C138.627 13.304 139.171 13.176 139.795 13.096C140.435 13.016 141.035 12.976 141.595 12.976ZM155.442 12.976C156.098 12.976 156.738 13.072 157.362 13.264C158.002 13.44 158.554 13.712 159.018 14.08C159.498 13.76 160.034 13.496 160.626 13.288C161.234 13.08 161.962 12.976 162.81 12.976C163.418 12.976 164.01 13.056 164.586 13.216C165.178 13.376 165.698 13.632 166.146 13.984C166.61 14.32 166.978 14.776 167.25 15.352C167.522 15.912 167.658 16.6 167.658 17.416V24.976C167.498 25.024 167.242 25.072 166.89 25.12C166.554 25.168 166.202 25.192 165.834 25.192C165.482 25.192 165.162 25.168 164.874 25.12C164.602 25.072 164.37 24.976 164.178 24.832C163.986 24.688 163.834 24.496 163.722 24.256C163.626 24 163.578 23.672 163.578 23.272V17.536C163.578 17.056 163.442 16.712 163.17 16.504C162.898 16.28 162.53 16.168 162.066 16.168C161.842 16.168 161.602 16.224 161.346 16.336C161.09 16.432 160.898 16.536 160.77 16.648C160.786 16.712 160.794 16.776 160.794 16.84C160.794 16.888 160.794 16.936 160.794 16.984V24.976C160.618 25.024 160.354 25.072 160.002 25.12C159.666 25.168 159.322 25.192 158.97 25.192C158.618 25.192 158.298 25.168 158.01 25.12C157.738 25.072 157.506 24.976 157.314 24.832C157.122 24.688 156.97 24.496 156.858 24.256C156.762 24 156.714 23.672 156.714 23.272V17.536C156.714 17.056 156.562 16.712 156.258 16.504C155.97 16.28 155.618 16.168 155.202 16.168C154.914 16.168 154.666 16.216 154.458 16.312C154.25 16.392 154.074 16.472 153.93 16.552V24.976C153.77 25.024 153.514 25.072 153.162 25.12C152.826 25.168 152.474 25.192 152.106 25.192C151.754 25.192 151.434 25.168 151.146 25.12C150.874 25.072 150.642 24.976 150.45 24.832C150.258 24.688 150.106 24.496 149.994 24.256C149.898 24 149.85 23.672 149.85 23.272V16.024C149.85 15.592 149.938 15.248 150.114 14.992C150.306 14.736 150.562 14.496 150.882 14.272C151.426 13.888 152.098 13.576 152.898 13.336C153.714 13.096 154.562 12.976 155.442 12.976Z" fill="#54CF1A"/>
</svg>
