<svg width="385" height="75" viewBox="0 0 385 75" fill="none" xmlns="http://www.w3.org/2000/svg">
<path fill-rule="evenodd" clip-rule="evenodd" d="M36.2989 2.14798V35.5311C36.2989 36.7841 35.3256 37.2316 34.4408 36.3366L0.464342 1.87948C-0.420462 0.984489 0.0219401 0 1.26067 0H34.3523C35.591 0 36.2989 0.626493 36.2989 2.14798ZM36.2989 39.7375V73.1207C36.2989 74.3736 35.3256 74.8211 34.4408 73.9262L0.464342 39.469C-0.420462 38.5741 0.0219401 37.5896 1.26067 37.5896H34.3523C35.591 37.5896 36.2989 38.2161 36.2989 39.7375ZM73.5491 2.14798V35.5311C73.5491 36.7841 72.5758 37.2316 71.691 36.3366L37.6261 1.87948C36.7413 0.984489 37.1837 0 38.4224 0H71.5141C72.8413 0 73.5491 0.626493 73.5491 2.14798ZM73.5491 39.7375V73.1207C73.5491 74.3736 72.5758 74.8211 71.691 73.9262L37.6261 39.469C36.7413 38.5741 37.1837 37.5896 38.4224 37.5896H71.5141C72.8413 37.5896 73.5491 38.2161 73.5491 39.7375ZM91.8646 37.6791H100.182V74.3736H91.8646V37.6791ZM115.046 74.3736H107.349V37.6791H117.258L131.238 63.8128H131.327L130.707 37.6791H138.405V74.3736H129.557L114.958 47.0765H114.781L115.046 74.3736ZM167.869 52.0884V58.8903H153.978V67.4822H169.55V74.3736H145.661V37.6791H168.754V44.5705H153.978V52.1779H167.869V52.0884ZM201.58 66.7662L202.907 73.2997C200.43 74.4632 197.156 75.0001 193.175 75.0001C187.069 75.0001 182.291 73.2997 178.841 69.9882C175.39 66.5872 173.62 62.2018 173.62 56.5634C173.62 50.6564 175.479 46.0025 179.283 42.4225C183.088 38.9321 187.954 37.1421 193.971 37.1421C198.041 37.1421 201.138 37.6791 203.35 38.8426L201.669 45.4655C199.457 44.481 196.979 44.0335 194.325 44.0335C190.697 44.0335 187.777 45.1075 185.565 47.2555C183.353 49.4034 182.291 52.3569 182.291 56.1159C182.291 59.7853 183.353 62.7388 185.565 64.8868C187.689 67.0347 190.609 68.1087 194.413 68.1087C196.979 68.0192 199.457 67.5717 201.58 66.7662ZM241.219 55.6684C241.219 61.4858 239.538 66.1397 236.176 69.6302C232.814 73.1207 228.301 74.9106 222.904 74.9106C217.507 74.9106 213.26 73.2102 209.986 69.6302C206.712 66.1397 205.119 61.6648 205.119 56.2054C205.119 50.5669 206.801 46.0025 210.251 42.4225C213.614 38.8426 218.038 37.0526 223.435 37.0526C228.832 37.0526 233.168 38.7531 236.441 42.2435C239.627 45.8235 241.219 50.2984 241.219 55.6684ZM213.79 56.1159C213.79 59.6958 214.675 62.6493 216.356 64.9763C218.038 67.2137 220.338 68.3772 223.081 68.3772C225.912 68.3772 228.124 67.2137 229.894 64.9763C231.575 62.7388 232.46 59.6958 232.46 56.0264C232.46 52.4464 231.664 49.4929 229.894 47.2555C228.213 44.9285 225.912 43.765 223.169 43.765C220.427 43.765 218.126 44.9285 216.445 47.2555C214.675 49.4929 213.79 52.4464 213.79 56.1159ZM246.794 74.1947V38.2161C249.714 37.6791 253.341 37.4106 257.677 37.4106C263.251 37.4106 267.144 38.3056 269.533 40.006C271.922 41.7065 273.072 43.944 273.072 46.7185C273.072 48.4189 272.541 50.0299 271.568 51.3724C270.595 52.7149 269.002 53.7889 267.056 54.5049V54.5944C269.356 55.2209 271.126 56.2949 272.453 57.9058C273.78 59.5168 274.4 61.3963 274.4 63.6338C274.4 66.8557 273.072 69.4512 270.418 71.5992C267.764 73.6577 262.897 74.7316 255.907 74.7316C252.368 74.7316 249.36 74.5527 246.794 74.1947ZM255.022 43.765V52.1779H257.765C259.977 52.1779 261.658 51.7304 262.897 51.0144C264.047 50.2089 264.667 49.1349 264.667 47.703C264.667 44.9285 262.632 43.4965 258.65 43.4965C256.969 43.4965 255.73 43.586 255.022 43.765ZM255.022 58.1743V68.3772C255.465 68.4667 256.527 68.5562 258.385 68.5562C260.685 68.5562 262.455 68.1087 263.693 67.2137C265.021 66.3187 265.64 64.9763 265.64 63.2758C265.64 61.5753 265.021 60.3223 263.605 59.4273C262.278 58.5323 260.42 58.0848 257.942 58.0848H255.022V58.1743ZM299.351 64.7973H288.468L285.814 74.3736H277.142L288.556 37.6791H299.528L311.296 74.3736H302.271L299.351 64.7973ZM289.707 58.6218H298.024C295.812 51.4619 294.396 46.5395 293.777 43.8545H293.688L292.007 50.8354L289.707 58.6218ZM323.949 74.3736H316.251V37.6791H326.161L340.14 63.8128H340.229L339.61 37.6791H347.307V74.3736H338.459L323.772 47.0765H323.595L323.949 74.3736ZM354.474 74.3736V37.6791H362.703V53.8784C363.853 52.1779 364.826 50.7459 365.711 49.4929L373.94 37.6791H384.292L371.905 53.2519L385 74.3736H375.267L365.888 58.5323L362.703 62.3808V74.3736H354.474Z" fill="#006037"/>
</svg>
