<svg width="37" height="32" viewBox="0 0 37 32" fill="none" xmlns="http://www.w3.org/2000/svg">
<path d="M27.2043 32.0001H32.2615C34.482 32.0001 36.282 30.2 36.282 27.9796V23.6719C36.282 21.4514 34.482 19.6514 32.2615 19.6514H13.0205C10.8 19.6514 9 21.4514 9 23.6719V27.9796C9 30.2 10.8 32.0001 13.0205 32.0001H17.8222H27.2043Z" fill="#E6F6FE"/>
<path d="M20.9897 12.3282C20.9914 11.0852 20.5881 9.87546 19.841 8.88205C19.841 8.78728 19.841 8.69251 19.841 8.59487C19.841 6.05719 17.7838 4 15.2461 4C12.7084 4 10.6512 6.05719 10.6512 8.59487C10.6512 8.68677 10.6512 8.78154 10.6512 8.88205C8.75096 11.422 9.2695 15.0214 11.8094 16.9217C12.5266 17.4583 13.3593 17.8197 14.241 17.977V26.2564C14.241 26.8115 14.691 27.2615 15.2461 27.2615C15.8012 27.2615 16.2512 26.8115 16.2512 26.2564V17.977C18.9903 17.4902 20.9867 15.1102 20.9897 12.3282Z" fill="#03A9F4" fill-opacity="0.1"/>
<path d="M35.7795 12.3282C35.7812 11.0852 35.3779 9.87546 34.6308 8.88205C34.6308 8.78728 34.6308 8.69251 34.6308 8.59487C34.6308 6.05719 32.5736 4 30.0359 4C27.4982 4 25.441 6.05719 25.441 8.59487C25.441 8.68677 25.441 8.78154 25.441 8.88205C23.5408 11.422 24.0593 15.0214 26.5992 16.9217C27.3164 17.4583 28.1491 17.8197 29.0308 17.977V26.2564C29.0308 26.8115 29.4808 27.2615 30.0359 27.2615C30.591 27.2615 31.041 26.8115 31.041 26.2564V17.977C33.7801 17.4902 35.7765 15.1102 35.7795 12.3282Z" fill="#03A9F4" fill-opacity="0.1"/>
<path d="M23.2615 28.0001H18.2043C17.5699 28.0001 17.0556 27.4858 17.0556 26.8514C17.0556 26.2169 17.5699 25.7027 18.2043 25.7027H23.2615C24.2132 25.7027 24.9846 24.9312 24.9846 23.9796V19.6719C24.9846 18.7203 24.2132 17.9488 23.2615 17.9488H4.02051C3.06888 17.9488 2.29744 18.7203 2.29744 19.6719V23.9796C2.29744 24.9312 3.06888 25.7027 4.02051 25.7027H8.82216C9.45657 25.7027 9.97088 26.2169 9.97088 26.8514C9.97088 27.4858 9.45657 28.0001 8.82216 28.0001H4.02051C1.80004 28.0001 0 26.2 0 23.9796V19.6719C0 17.4514 1.80004 15.6514 4.02051 15.6514H23.2615C25.482 15.6514 27.282 17.4514 27.282 19.6719V23.9796C27.282 26.2 25.482 28.0001 23.2615 28.0001Z" fill="#2C8CF4"/>
<path d="M11.9897 8.3282C11.9914 7.08519 11.5881 5.87546 10.841 4.88205C10.841 4.78728 10.841 4.69251 10.841 4.59487C10.841 2.05719 8.78377 0 6.2461 0C3.70842 0 1.65123 2.05719 1.65123 4.59487C1.65123 4.68677 1.65123 4.78154 1.65123 4.88205C-0.24904 7.42197 0.269504 11.0214 2.80941 12.9217C3.52656 13.4583 4.35927 13.8197 5.24098 13.977V22.2564C5.24098 22.8115 5.69098 23.2615 6.2461 23.2615C6.80122 23.2615 7.25123 22.8115 7.25123 22.2564V13.977C9.99033 13.4902 11.9867 11.1102 11.9897 8.3282ZM6.2461 11.7744C4.34284 11.7707 2.8029 10.2249 2.80654 8.32162C2.80817 7.46421 3.12938 6.63819 3.70743 6.00492C3.95351 5.73929 4.05994 5.37318 3.99461 5.01702C3.96704 4.87791 3.95166 4.73666 3.94866 4.59487C3.94866 3.32603 4.97727 2.29744 6.2461 2.29744C7.51494 2.29744 8.54354 3.32603 8.54354 4.59487C8.54243 4.73649 8.52898 4.87774 8.50334 5.01702C8.438 5.37318 8.54444 5.73929 8.79051 6.00492C10.0736 7.41063 9.97425 9.59035 8.56854 10.8735C7.93381 11.4528 7.10549 11.7741 6.2461 11.7744Z" fill="#2C8CF4"/>
<path d="M26.7795 8.3282C26.7812 7.08519 26.3779 5.87546 25.6308 4.88205C25.6308 4.78728 25.6308 4.69251 25.6308 4.59487C25.6308 2.05719 23.5736 0 21.0359 0C18.4982 0 16.441 2.05719 16.441 4.59487C16.441 4.68677 16.441 4.78154 16.441 4.88205C14.5408 7.42197 15.0593 11.0214 17.5992 12.9217C18.3164 13.4583 19.1491 13.8197 20.0308 13.977V22.2564C20.0308 22.8115 20.4808 23.2615 21.0359 23.2615C21.591 23.2615 22.041 22.8115 22.041 22.2564V13.977C24.7801 13.4902 26.7765 11.1102 26.7795 8.3282ZM21.0359 11.7744C19.1326 11.7707 17.5927 10.2249 17.5963 8.32162C17.598 7.46421 17.9192 6.63819 18.4972 6.00492C18.7433 5.73929 18.8497 5.37318 18.7844 5.01702C18.7568 4.87791 18.7415 4.73666 18.7385 4.59487C18.7385 3.32603 19.7671 2.29744 21.0359 2.29744C22.3047 2.29744 23.3333 3.32603 23.3333 4.59487C23.3322 4.73649 23.3188 4.87774 23.2931 5.01702C23.2278 5.37318 23.3342 5.73929 23.5803 6.00492C24.8634 7.41063 24.764 9.59035 23.3583 10.8735C22.7236 11.4528 21.8953 11.7741 21.0359 11.7744Z" fill="#2C8CF4"/>
</svg>
