<svg width="15" height="14" viewBox="0 0 15 14" fill="none" xmlns="http://www.w3.org/2000/svg">
<path d="M3.66901 0C3.18252 0 2.78448 0.39375 2.78448 0.875V13.125C2.78448 13.6062 3.18252 14 3.66901 14H12.5142C13.0007 14 13.3988 13.6062 13.3988 13.125V3.5L9.86067 0H3.66901Z" fill="#E2E5E7"/>
<path d="M10.7452 3.5H13.3988L9.86066 0V2.625C9.86066 3.10625 10.2587 3.5 10.7452 3.5Z" fill="#B0B7BD"/>
<path d="M13.3987 6.125L10.7452 3.5H13.3987V6.125Z" fill="#CAD1D8"/>
<path d="M11.6297 11.375C11.6297 11.6156 11.4307 11.8125 11.1875 11.8125H1.4577C1.21446 11.8125 1.01544 11.6156 1.01544 11.375V7C1.01544 6.75937 1.21446 6.5625 1.4577 6.5625H11.1875C11.4307 6.5625 11.6297 6.75937 11.6297 7V11.375Z" fill="#F15642"/>
<path d="M2.94312 8.28935C2.94312 8.17385 3.03511 8.04785 3.18326 8.04785H4.00012C4.46007 8.04785 4.87403 8.35235 4.87403 8.93598C4.87403 9.48898 4.46007 9.79698 4.00012 9.79698H3.4097V10.259C3.4097 10.413 3.31063 10.5 3.18326 10.5C3.06651 10.5 2.94312 10.413 2.94312 10.259V8.28935ZM3.4097 8.48841V9.35991H4.00012C4.23717 9.35991 4.42469 9.15298 4.42469 8.93598C4.42469 8.69141 4.23717 8.48841 4.00012 8.48841H3.4097Z" fill="white"/>
<path d="M5.56652 10.5C5.44976 10.5 5.32239 10.437 5.32239 10.2835V8.29635C5.32239 8.17078 5.44976 8.07935 5.56652 8.07935H6.37629C7.99231 8.07935 7.95693 10.5 6.40814 10.5H5.56652ZM5.78941 8.50635V10.0735H6.37629C7.33113 10.0735 7.37359 8.50635 6.37629 8.50635H5.78941Z" fill="white"/>
<path d="M8.53011 8.5343V9.09036H9.43188C9.55925 9.09036 9.68663 9.21636 9.68663 9.33842C9.68663 9.45392 9.55925 9.54842 9.43188 9.54842H8.53011V10.283C8.53011 10.4055 8.4421 10.4995 8.31827 10.4995C8.16259 10.4995 8.0675 10.4055 8.0675 10.283V8.29586C8.0675 8.1703 8.16303 8.07886 8.31827 8.07886H9.5597C9.71537 8.07886 9.80736 8.1703 9.80736 8.29586C9.80736 8.40786 9.71537 8.53386 9.5597 8.53386H8.53011V8.5343Z" fill="white"/>
<path d="M11.1875 11.8125H2.78448V12.25H11.1875C11.4307 12.25 11.6297 12.0531 11.6297 11.8125V11.375C11.6297 11.6156 11.4307 11.8125 11.1875 11.8125Z" fill="#CAD1D8"/>
</svg>
